<svg xmlns="http://www.w3.org/2000/svg" xmlns:xlink="http://www.w3.org/1999/xlink" width="500" zoomAndPan="magnify" viewBox="0 0 375 374.999991" height="500" preserveAspectRatio="xMidYMid meet" version="1.0"><defs><clipPath id="bffec6a96e"><path d="M 85 105.722656 L 253 105.722656 L 253 269.222656 L 85 269.222656 Z M 85 105.722656 " clip-rule="nonzero"/></clipPath><clipPath id="e249922be2"><path d="M 124 160 L 289.710938 160 L 289.710938 252 L 124 252 Z M 124 160 " clip-rule="nonzero"/></clipPath></defs><g clip-path="url(#bffec6a96e)"><path fill="#003479" d="M 170.335938 205.925781 L 116.273438 165.054688 L 116.273438 269.265625 L 85.160156 269.265625 L 85.160156 105.730469 L 136.8125 144.78125 L 136.816406 144.78125 L 170.335938 170.125 L 252.394531 106.910156 L 252.394531 143.886719 L 194.011719 188.027344 L 186.832031 193.457031 Z M 221.1875 222.332031 L 221.277344 269.269531 L 252.394531 269.269531 L 252.300781 198.808594 Z M 221.1875 222.332031 " fill-opacity="1" fill-rule="nonzero"/></g><g clip-path="url(#e249922be2)"><path fill="#141c3a" d="M 242.480469 160.75 L 170.335938 215.296875 L 124.234375 180.441406 L 124.234375 216.242188 L 170.335938 251.101562 L 289.835938 160.75 Z M 242.480469 160.75 " fill-opacity="1" fill-rule="nonzero"/></g></svg>