<svg xmlns="http://www.w3.org/2000/svg" xmlns:xlink="http://www.w3.org/1999/xlink" width="500" zoomAndPan="magnify" viewBox="0 0 375 374.999991" height="500" preserveAspectRatio="xMidYMid meet" version="1.0"><defs><g/><clipPath id="996b87eef3"><path d="M 71.011719 120.195312 L 199 120.195312 L 199 265.679688 L 71.011719 265.679688 Z M 71.011719 120.195312 " clip-rule="nonzero"/></clipPath><clipPath id="573cc0776e"><path d="M 155 120.195312 L 282.511719 120.195312 L 282.511719 265.679688 L 155 265.679688 Z M 155 120.195312 " clip-rule="nonzero"/></clipPath><clipPath id="21a6567cd1"><path d="M 71.011719 120.195312 L 199 120.195312 L 199 265.679688 L 71.011719 265.679688 Z M 71.011719 120.195312 " clip-rule="nonzero"/></clipPath></defs><rect x="-37.5" width="450" fill="#ffffff" y="-37.499999" height="449.999989" fill-opacity="1"/><g clip-path="url(#996b87eef3)"><path fill="#ffffff" d="M 192.941406 120.179688 C 195.875 120.179688 198.273438 122.578125 198.273438 125.511719 L 198.273438 260.496094 C 198.273438 263.429688 195.875 265.824219 192.941406 265.824219 L 159.257812 265.824219 C 156.324219 265.824219 153.925781 263.425781 153.925781 260.496094 L 153.925781 214.199219 C 153.925781 211.265625 152.726562 210.945312 151.261719 213.484375 L 123.707031 261.207031 C 122.242188 263.746094 118.644531 265.824219 115.710938 265.824219 L 75.171875 265.824219 C 72.242188 265.824219 71.039062 263.746094 72.503906 261.207031 L 151.261719 124.800781 C 152.726562 122.261719 153.925781 120.183594 153.925781 120.183594 C 153.925781 120.179688 156.324219 120.179688 159.257812 120.179688 Z M 192.941406 120.179688 " fill-opacity="1" fill-rule="nonzero"/></g><g clip-path="url(#573cc0776e)"><path fill="#6e07f3" d="M 276.953125 120.179688 C 279.886719 120.179688 282.285156 122.578125 282.285156 125.511719 L 282.285156 260.496094 C 282.285156 263.429688 279.886719 265.824219 276.953125 265.824219 L 243.265625 265.824219 C 240.332031 265.824219 237.933594 263.425781 237.933594 260.496094 L 237.933594 214.199219 C 237.933594 211.265625 236.734375 210.945312 235.273438 213.484375 L 207.71875 261.207031 C 206.253906 263.746094 202.660156 265.824219 199.726562 265.824219 L 159.179688 265.824219 C 156.25 265.824219 155.050781 263.746094 156.515625 261.207031 L 235.277344 124.800781 C 236.738281 122.261719 237.941406 120.183594 237.941406 120.183594 C 237.941406 120.179688 240.339844 120.179688 243.269531 120.179688 Z M 276.953125 120.179688 " fill-opacity="1" fill-rule="nonzero"/></g><g clip-path="url(#21a6567cd1)"><path fill="#6e07f3" d="M 151.261719 213.488281 L 123.707031 261.210938 C 122.242188 263.75 118.644531 265.828125 115.710938 265.828125 L 75.171875 265.828125 C 72.242188 265.828125 71.039062 263.75 72.503906 261.210938 L 151.261719 124.800781 C 152.726562 122.261719 153.925781 120.183594 153.925781 120.183594 C 153.925781 120.179688 156.324219 120.179688 159.257812 120.179688 L 192.941406 120.179688 C 195.875 120.179688 198.273438 122.578125 198.273438 125.511719 L 198.273438 171.585938 L 153.929688 248.394531 L 153.929688 214.203125 C 153.929688 211.269531 152.730469 210.945312 151.261719 213.488281 Z M 151.261719 213.488281 " fill-opacity="1" fill-rule="nonzero"/></g><g fill="#000f52" fill-opacity="1"><g transform="translate(0.133203, 284.499955)"><g><path d="M 75.6875 25.515625 C 64.207031 25.515625 55.351562 22.625 49.125 16.84375 C 42.90625 11.0625 39.796875 2.394531 39.796875 -9.15625 L 39.796875 -52.484375 C 39.796875 -59.972656 38.226562 -65.242188 35.09375 -68.296875 C 31.957031 -71.347656 26.726562 -72.875 19.40625 -72.875 L 9.640625 -72.875 L 9.640625 -90.203125 L 19.40625 -90.203125 C 26.726562 -90.203125 31.957031 -91.75 35.09375 -94.84375 C 38.226562 -97.9375 39.796875 -103.226562 39.796875 -110.71875 L 39.796875 -154.046875 C 39.796875 -165.609375 42.90625 -174.273438 49.125 -180.046875 C 55.351562 -185.828125 64.207031 -188.71875 75.6875 -188.71875 L 88.25 -188.71875 L 88.25 -172.859375 L 78.25 -172.859375 C 71.570312 -172.859375 66.625 -171.332031 63.40625 -168.28125 C 60.195312 -165.226562 58.59375 -160.484375 58.59375 -154.046875 L 58.59375 -112.1875 C 58.59375 -103.96875 57.023438 -97.597656 53.890625 -93.078125 C 50.753906 -88.554688 46.140625 -85.160156 40.046875 -82.890625 L 40.046875 -80.328125 C 46.140625 -78.046875 50.753906 -74.644531 53.890625 -70.125 C 57.023438 -65.613281 58.59375 -59.25 58.59375 -51.03125 L 58.59375 -9.15625 C 58.59375 -2.726562 60.195312 2.007812 63.40625 5.0625 C 66.625 8.113281 71.570312 9.640625 78.25 9.640625 L 88.25 9.640625 L 88.25 25.515625 Z M 75.6875 25.515625 "/></g></g></g><g fill="#000f52" fill-opacity="1"><g transform="translate(277.863428, 277.105839)"><g><path d="M 8.796875 25.515625 L 8.796875 9.640625 L 18.671875 9.640625 C 25.347656 9.640625 30.289062 8.113281 33.5 5.0625 C 36.71875 2.007812 38.328125 -2.726562 38.328125 -9.15625 L 38.328125 -51.03125 C 38.328125 -59.25 39.894531 -65.613281 43.03125 -70.125 C 46.164062 -74.644531 50.820312 -78.046875 57 -80.328125 L 57 -82.890625 C 50.820312 -85.160156 46.164062 -88.554688 43.03125 -93.078125 C 39.894531 -97.597656 38.328125 -103.96875 38.328125 -112.1875 L 38.328125 -154.046875 C 38.328125 -160.484375 36.71875 -165.226562 33.5 -168.28125 C 30.289062 -171.332031 25.347656 -172.859375 18.671875 -172.859375 L 8.796875 -172.859375 L 8.796875 -188.71875 L 21.234375 -188.71875 C 32.710938 -188.71875 41.582031 -185.828125 47.84375 -180.046875 C 54.113281 -174.273438 57.25 -165.609375 57.25 -154.046875 L 57.25 -110.71875 C 57.25 -103.226562 58.816406 -97.9375 61.953125 -94.84375 C 65.085938 -91.75 70.316406 -90.203125 77.640625 -90.203125 L 87.28125 -90.203125 L 87.28125 -72.875 L 77.640625 -72.875 C 70.316406 -72.875 65.085938 -71.347656 61.953125 -68.296875 C 58.816406 -65.242188 57.25 -59.972656 57.25 -52.484375 L 57.25 -9.15625 C 57.25 2.394531 54.113281 11.0625 47.84375 16.84375 C 41.582031 22.625 32.710938 25.515625 21.234375 25.515625 Z M 8.796875 25.515625 "/></g></g></g></svg>