<svg xmlns="http://www.w3.org/2000/svg" xmlns:xlink="http://www.w3.org/1999/xlink" width="500" zoomAndPan="magnify" viewBox="0 0 375 374.999991" height="500" preserveAspectRatio="xMidYMid meet" version="1.0"><defs><g/><clipPath id="678e144625"><path d="M 82 118.121094 L 203 118.121094 L 203 256.351562 L 82 256.351562 Z M 82 118.121094 " clip-rule="nonzero"/></clipPath><clipPath id="651ecd2a30"><path d="M 162 118.121094 L 282.328125 118.121094 L 282.328125 256.351562 L 162 256.351562 Z M 162 118.121094 " clip-rule="nonzero"/></clipPath><clipPath id="38c6ced99d"><path d="M 82 118.121094 L 203 118.121094 L 203 256.351562 L 82 256.351562 Z M 82 118.121094 " clip-rule="nonzero"/></clipPath></defs><g clip-path="url(#678e144625)"><path fill="#ffffff" d="M 197.222656 118.105469 C 200.007812 118.105469 202.289062 120.386719 202.289062 123.171875 L 202.289062 251.429688 C 202.289062 254.214844 200.007812 256.492188 197.222656 256.492188 L 165.21875 256.492188 C 162.429688 256.492188 160.152344 254.210938 160.152344 251.429688 L 160.152344 207.441406 C 160.152344 204.652344 159.011719 204.347656 157.621094 206.761719 L 131.441406 252.105469 C 130.046875 254.515625 126.628906 256.492188 123.84375 256.492188 L 85.324219 256.492188 C 82.539062 256.492188 81.398438 254.515625 82.789062 252.105469 L 157.621094 122.496094 C 159.011719 120.085938 160.152344 118.109375 160.152344 118.109375 C 160.152344 118.105469 162.429688 118.105469 165.21875 118.105469 Z M 197.222656 118.105469 " fill-opacity="1" fill-rule="nonzero"/></g><g clip-path="url(#651ecd2a30)"><path fill="#6e07f3" d="M 277.042969 118.105469 C 279.832031 118.105469 282.109375 120.386719 282.109375 123.171875 L 282.109375 251.429688 C 282.109375 254.214844 279.832031 256.492188 277.042969 256.492188 L 245.039062 256.492188 C 242.25 256.492188 239.972656 254.210938 239.972656 251.429688 L 239.972656 207.441406 C 239.972656 204.652344 238.832031 204.347656 237.441406 206.761719 L 211.261719 252.105469 C 209.871094 254.515625 206.453125 256.492188 203.667969 256.492188 L 165.144531 256.492188 C 162.359375 256.492188 161.21875 254.515625 162.609375 252.105469 L 237.445312 122.496094 C 238.835938 120.085938 239.976562 118.109375 239.976562 118.109375 C 239.976562 118.105469 242.253906 118.105469 245.042969 118.105469 Z M 277.042969 118.105469 " fill-opacity="1" fill-rule="nonzero"/></g><g clip-path="url(#38c6ced99d)"><path fill="#6e07f3" d="M 157.621094 206.765625 L 131.441406 252.109375 C 130.046875 254.519531 126.628906 256.496094 123.84375 256.496094 L 85.324219 256.496094 C 82.539062 256.496094 81.398438 254.519531 82.789062 252.109375 L 157.621094 122.496094 C 159.011719 120.085938 160.152344 118.109375 160.152344 118.109375 C 160.152344 118.105469 162.429688 118.105469 165.21875 118.105469 L 197.222656 118.105469 C 200.007812 118.105469 202.289062 120.386719 202.289062 123.171875 L 202.289062 166.949219 L 160.15625 239.929688 L 160.15625 207.445312 C 160.15625 204.65625 159.015625 204.347656 157.621094 206.765625 Z M 157.621094 206.765625 " fill-opacity="1" fill-rule="nonzero"/></g><g fill="#000f52" fill-opacity="1"><g transform="translate(14.025696, 274.236458)"><g><path d="M 71.90625 24.234375 C 61.007812 24.234375 52.601562 21.488281 46.6875 16 C 40.769531 10.507812 37.8125 2.273438 37.8125 -8.703125 L 37.8125 -49.875 C 37.8125 -56.988281 36.320312 -61.992188 33.34375 -64.890625 C 30.363281 -67.785156 25.394531 -69.234375 18.4375 -69.234375 L 9.15625 -69.234375 L 9.15625 -85.703125 L 18.4375 -85.703125 C 25.394531 -85.703125 30.363281 -87.171875 33.34375 -90.109375 C 36.320312 -93.054688 37.8125 -98.085938 37.8125 -105.203125 L 37.8125 -146.375 C 37.8125 -157.351562 40.769531 -165.585938 46.6875 -171.078125 C 52.601562 -176.566406 61.007812 -179.3125 71.90625 -179.3125 L 83.859375 -179.3125 L 83.859375 -164.234375 L 74.34375 -164.234375 C 68 -164.234375 63.300781 -162.78125 60.25 -159.875 C 57.195312 -156.976562 55.671875 -152.476562 55.671875 -146.375 L 55.671875 -106.59375 C 55.671875 -98.78125 54.179688 -92.726562 51.203125 -88.4375 C 48.222656 -84.144531 43.835938 -80.914062 38.046875 -78.75 L 38.046875 -76.3125 C 43.835938 -74.144531 48.222656 -70.914062 51.203125 -66.625 C 54.179688 -62.332031 55.671875 -56.285156 55.671875 -48.484375 L 55.671875 -8.703125 C 55.671875 -2.585938 57.195312 1.914062 60.25 4.8125 C 63.300781 7.707031 68 9.15625 74.34375 9.15625 L 83.859375 9.15625 L 83.859375 24.234375 Z M 71.90625 24.234375 "/></g></g></g><g fill="#000f52" fill-opacity="1"><g transform="translate(277.909923, 267.210968)"><g><path d="M 8.34375 24.234375 L 8.34375 9.15625 L 17.75 9.15625 C 24.082031 9.15625 28.773438 7.707031 31.828125 4.8125 C 34.890625 1.914062 36.421875 -2.585938 36.421875 -8.703125 L 36.421875 -48.484375 C 36.421875 -56.285156 37.90625 -62.332031 40.875 -66.625 C 43.851562 -70.914062 48.28125 -74.144531 54.15625 -76.3125 L 54.15625 -78.75 C 48.28125 -80.914062 43.851562 -84.144531 40.875 -88.4375 C 37.90625 -92.726562 36.421875 -98.78125 36.421875 -106.59375 L 36.421875 -146.375 C 36.421875 -152.476562 34.890625 -156.976562 31.828125 -159.875 C 28.773438 -162.78125 24.082031 -164.234375 17.75 -164.234375 L 8.34375 -164.234375 L 8.34375 -179.3125 L 20.1875 -179.3125 C 31.082031 -179.3125 39.503906 -176.566406 45.453125 -171.078125 C 51.410156 -165.585938 54.390625 -157.351562 54.390625 -146.375 L 54.390625 -105.203125 C 54.390625 -98.085938 55.878906 -93.054688 58.859375 -90.109375 C 61.835938 -87.171875 66.804688 -85.703125 73.765625 -85.703125 L 82.921875 -85.703125 L 82.921875 -69.234375 L 73.765625 -69.234375 C 66.804688 -69.234375 61.835938 -67.785156 58.859375 -64.890625 C 55.878906 -61.992188 54.390625 -56.988281 54.390625 -49.875 L 54.390625 -8.703125 C 54.390625 2.273438 51.410156 10.507812 45.453125 16 C 39.503906 21.488281 31.082031 24.234375 20.1875 24.234375 Z M 8.34375 24.234375 "/></g></g></g></svg>